<svg width="22" height="22" viewBox="0 0 22 22" fill="none" xmlns="http://www.w3.org/2000/svg">
<path d="M1.83337 5.04175C1.83337 4.67708 1.97824 4.32734 2.2361 4.06948C2.49396 3.81161 2.8437 3.66675 3.20837 3.66675H18.7917C19.1564 3.66675 19.5061 3.81161 19.764 4.06948C20.0218 4.32734 20.1667 4.67708 20.1667 5.04175C20.1667 5.40642 20.0218 5.75616 19.764 6.01402C19.5061 6.27188 19.1564 6.41675 18.7917 6.41675H3.20837C2.8437 6.41675 2.49396 6.27188 2.2361 6.01402C1.97824 5.75616 1.83337 5.40642 1.83337 5.04175ZM5.50004 10.5417C5.50004 10.1771 5.64491 9.82734 5.90277 9.56948C6.16063 9.31161 6.51037 9.16675 6.87504 9.16675H15.125C15.4897 9.16675 15.8394 9.31161 16.0973 9.56948C16.3552 9.82734 16.5 10.1771 16.5 10.5417C16.5 10.9064 16.3552 11.2562 16.0973 11.514C15.8394 11.7719 15.4897 11.9167 15.125 11.9167H6.87504C6.51037 11.9167 6.16063 11.7719 5.90277 11.514C5.64491 11.2562 5.50004 10.9064 5.50004 10.5417ZM9.62504 14.6667C9.26037 14.6667 8.91063 14.8116 8.65277 15.0695C8.39491 15.3273 8.25004 15.6771 8.25004 16.0417C8.25004 16.4064 8.39491 16.7562 8.65277 17.014C8.91063 17.2719 9.26037 17.4167 9.62504 17.4167H12.375C12.7397 17.4167 13.0895 17.2719 13.3473 17.014C13.6052 16.7562 13.75 16.4064 13.75 16.0417C13.75 15.6771 13.6052 15.3273 13.3473 15.0695C13.0895 14.8116 12.7397 14.6667 12.375 14.6667H9.62504Z" fill="#D9D9D9"/>
</svg>
